#!OML:ASF F:\VICON\USERDATA\INSTALL\rory3\rory3.ASF
:FULLY-SPECIFIED
:DEGREES
4304
root 14.2137 17.7693 -10.5963 898.726 -198.618 -1615.39
lowerback 7.67514 1.51254 -4.13687
upperback 0.438109 1.64074 -0.430299
thorax -3.95546 0.885005 1.69631
lowerneck -17.7832 -6.20382 -12.9391
upperneck 35.9879 -7.18257 6.85274
head 16.8209 -3.74327 3.91811
rclavicle 5.81632e-014 -5.36719e-015
rhumerus -32.4109 -4.56275 -85.6333
rradius 35.6582
rwrist 2.15041
rhand -18.095 7.5445
rfingers 7.12502
rthumb 8.17869 -22.2772
lclavicle 5.81632e-014 -5.36719e-015
lhumerus -32.0644 10.6327 67.3746
lradius 24.9575
lwrist -11.0723
lhand -18.7968 26.906
lfingers 7.12502
lthumb 7.5013 56.753
rfemur -7.72204 -9.60418 20.2568
rtibia 36.1269
rfoot -21.4036 -19.791
rtoes 13.1922
lfemur -6.09208 5.22538 -24.2238
ltibia 26.9993
lfoot -10.6464 18.7647
ltoes -5.01712
4305
root 14.232 17.7611 -10.5987 898.709 -197.593 -1615.35
lowerback 7.4743 1.53172 -4.1357
upperback 0.47922 1.67613 -0.46713
thorax -3.8011 0.899059 1.65896
lowerneck -17.855 -6.20166 -13.0298
upperneck 35.9754 -7.19657 6.97762
head 16.8461 -3.74705 3.98588
rclavicle 9.6833e-014 -2.36554e-014
rhumerus -32.3658 -4.74853 -85.5401
rradius 35.5372
rwrist 2.23419
rhand -18.2178 7.59331
rfingers 7.12502
rthumb 8.0601 -22.233
lclavicle 9.6833e-014 -2.36554e-014
lhumerus -31.9355 10.3501 67.5076
lradius 25.3388
lwrist -10.1144
lhand -18.8465 27.2145
lfingers 7.12502
lthumb 7.4533 57.0632
rfemur -7.48296 -8.94607 20.0604
rtibia 35.7099
rfoot -21.1563 -18.8623
rtoes 12.7069
lfemur -6.20997 5.34274 -24.3713
ltibia 27.4199
lfoot -11.0808 19.5834
ltoes -4.21957
4306
root 14.2488 17.7536 -10.6025 898.635 -196.687 -1615.5
lowerback 7.22478 1.49344 -4.04444
upperback 0.557205 1.64979 -0.396977
thorax -3.57805 0.880249 1.69058
lowerneck -17.847 -6.18228 -13.1815
upperneck 35.8825 -7.18906 7.15294
head 16.8123 -3.74352 4.08967
rclavicle -8.79622e-015 3.97569e-016
rhumerus -32.0877 -4.86853 -85.3956
rradius 35.2634
rwrist 2.22182
rhand -18.1525 7.66912
rfingers 7.12502
rthumb 8.12316 -22.1548
lclavicle -8.79622e-015 3.97569e-016
lhumerus -31.8886 9.88625 67.8286
lradius 25.9454
lwrist -8.87635
lhand -18.865 27.8798
lfingers 7.12502
lthumb 7.43541 57.7292
rfemur -7.2957 -8.54242 20.0336
rtibia 35.3899
rfoot -20.8582 -18.0603
rtoes 11.2888
lfemur -6.32187 5.44705 -24.3066
ltibia 27.8063
lfoot -11.4497 20.2943
ltoes -3.54801
4307
root 14.2629 17.7519 -10.6075 898.494 -195.834 -1615.81
lowerback 7.60149 1.42636 -3.59789
upperback 0.254564 1.56957 -0.461983
thorax -4.08484 0.843539 1.36836
lowerneck -17.6973 -6.05288 -12.9753
upperneck 36.0212 -7.12231 7.1926
head 16.8254 -3.69141 4.09317
rclavicle 6.52883e-014 -1.90833e-014
rhumerus -32.2522 -5.15015 -85.4379
rradius 34.8934
rwrist 2.24762
rhand -18.03 7.64804
rfingers 7.12502
rthumb 8.24139 -22.1712
lclavicle 6.52883e-014 -1.90833e-014
lhumerus -32.282 9.8922 67.5579
lradius 26.2915
lwrist -8.6332
lhand -19.0485 27.8864
lfingers 7.12502
lthumb 7.25838 57.7419
rfemur -7.18047 -8.16771 20.2114
rtibia 35.156
rfoot -20.5728 -17.4484
rtoes 9.34486
lfemur -6.42224 5.60082 -24.0365
ltibia 28.2052
lfoot -11.768 20.8534
ltoes -2.97484
4308
root 14.2739 17.7523 -10.6203 898.327 -195.178 -1615.99
lowerback 7.98728 1.33957 -3.32947
upperback 0.0780457 1.45526 -0.502516
thorax -4.47147 0.788022 1.17796
lowerneck -17.6122 -5.99079 -12.7431
upperneck 36.0515 -7.09465 7.08451
head 16.7948 -3.66815 4.00999
rclavicle -3.33368e-014 7.95139e-015
rhumerus -32.3538 -5.3931 -85.4018
rradius 34.6255
rwrist 2.07652
rhand -18.0389 7.64169
rfingers 7.12502
rthumb 8.2328 -22.1779
lclavicle -3.33368e-014 7.95139e-015
lhumerus -32.4379 9.88024 67.4675
lradius 26.5344
lwrist -8.26643
lhand -18.9795 27.6348
lfingers 7.12502
lthumb 7.3249 57.488
rfemur -7.05306 -8.059 20.2386
rtibia 34.9472
rfoot -20.2441 -16.757
rtoes 8.05073
lfemur -6.50979 5.61685 -23.8972
ltibia 28.6505
lfoot -12.1198 21.3505
ltoes -2.12896
4309
root 14.2816 17.7525 -10.6377 898.164 -194.615 -1616.17
lowerback 8.24488 1.25002 -3.18244
upperback 0.0359815 1.3403 -0.457834
thorax -4.65236 0.730939 1.15
lowerneck -17.587 -6.00328 -12.6325
upperneck 35.9755 -7.1381 7.014
head 16.744 -3.68282 3.94534
rclavicle 3.67938e-014 -1.41137e-014
rhumerus -32.3983 -5.52733 -85.2979
rradius 34.5298
rwrist 1.79984
rhand -18.0205 7.10553
rfingers 7.12502
rthumb 8.25051 -22.7134
lclavicle 3.67938e-014 -1.41137e-014
lhumerus -32.461 9.62686 67.6847
lradius 26.9527
lwrist -7.56448
lhand -18.6896 27.5952
lfingers 7.12502
lthumb 7.60479 57.4385
rfemur -6.9551 -8.15695 20.2614
rtibia 34.7431
rfoot -20.062 -16.0235
rtoes 7.90257
lfemur -6.63971 5.60228 -23.7424
ltibia 29.1068
lfoot -12.0909 21.7566
ltoes -2.02781
4310
root 14.295 17.7576 -10.6434 897.987 -193.748 -1616.51
lowerback 8.25836 1.25515 -2.91002
upperback 0.082348 1.38028 -0.310868
thorax -4.61016 0.745168 1.14523
lowerneck -17.6376 -6.03474 -12.7191
upperneck 35.8555 -7.18661 7.0982
head 16.7104 -3.7037 3.9823
rclavicle -6.47013e-014 -1.2921e-014
rhumerus -32.4152 -5.71889 -85.0826
rradius 34.5677
rwrist 1.80239
rhand -17.7192 6.43517
rfingers 7.12502
rthumb 8.54128 -23.3721
lclavicle -6.47013e-014 -1.2921e-014
lhumerus -32.2553 10.0713 67.8802
lradius 27.0763
lwrist -7.45469
lhand -18.7243 27.9429
lfingers 7.12502
lthumb 7.57127 57.7874
rfemur -6.87166 -8.09131 20.4716
rtibia 34.5484
rfoot -19.9838 -15.3323
rtoes 7.64984
lfemur -6.73005 5.75956 -23.3957
ltibia 29.5581
lfoot -11.7067 22.1801
ltoes -3.18804
4311
root 14.3153 17.7657 -10.6395 897.877 -192.604 -1616.88
lowerback 8.01046 1.33598 -2.57969
upperback 0.191019 1.5354 -0.168452
thorax -4.35907 0.812702 1.09556
lowerneck -17.7901 -6.06472 -12.6854
upperneck 35.7295 -7.2265 7.09159
head 16.6852 -3.71455 3.95684
rclavicle 6.40459e-015 -6.55989e-015
rhumerus -32.4106 -5.9582 -84.8779
rradius 34.5835
rwrist 1.86157
rhand -17.807 6.62953
rfingers 7.12502
rthumb 8.45657 -23.1812
lclavicle 6.40459e-015 -6.55989e-015
lhumerus -31.6477 11.4344 67.827
lradius 26.5801
lwrist -8.14045
lhand -18.7143 27.3485
lfingers 7.12502
lthumb 7.58093 57.1926
rfemur -6.82019 -7.81161 20.7245
rtibia 34.3372
rfoot -19.9149 -14.6035
rtoes 6.77678
lfemur -6.81642 5.94399 -23.0135
ltibia 30.0429
lfoot -11.7284 22.5611
ltoes -2.89279
4312
root 14.3353 17.7699 -10.6373 897.81 -191.493 -1617.14
lowerback 7.80398 1.38221 -2.33808
upperback 0.258544 1.63075 -0.0539198
thorax -4.17304 0.853898 1.07316
lowerneck -17.9254 -6.05272 -12.6594
upperneck 35.6539 -7.21165 7.10403
head 16.6754 -3.70265 3.95516
rclavicle 2.59166e-014 3.37934e-015
rhumerus -32.3538 -6.09664 -84.654
rradius 34.3332
rwrist 1.82926
rhand -18.3328 7.1503
rfingers 7.12502
rthumb 7.94909 -22.6802
lclavicle 2.59166e-014 3.37934e-015
lhumerus -31.751 10.9581 68.3833
lradius 27.3873
lwrist -6.96846
lhand -18.8823 27.0348
lfingers 7.12502
lthumb 7.41876 56.8847
rfemur -6.76353 -7.5435 20.861
rtibia 34.1262
rfoot -19.8452 -13.8722
rtoes 5.93806
lfemur -6.91886 5.93039 -22.7524
ltibia 30.5493
lfoot -11.9262 22.9214
ltoes -2.25464
4313
root 14.3532 17.7715 -10.6391 897.683 -190.387 -1617.37
lowerback 7.75737 1.45275 -2.09983
upperback 0.302938 1.75176 0.0476958
thorax -4.10114 0.909242 1.03264
lowerneck -17.9647 -6.06466 -12.7572
upperneck 35.5247 -7.25474 7.26048
head 16.6381 -3.71294 4.02798
rclavicle 8.69683e-017 2.38542e-015
rhumerus -32.4422 -6.16855 -84.4339
rradius 34.382
rwrist 1.46704
rhand -18.1509 6.81302
rfingers 7.12502
rthumb 8.12466 -23.0108
lclavicle 8.69683e-017 2.38542e-015
lhumerus -31.6681 11.2697 68.668
lradius 27.6571
lwrist -6.79822
lhand -19.0815 26.8645
lfingers 7.12502
lthumb 7.22652 56.7212
rfemur -6.64627 -7.26395 20.9841
rtibia 33.9292
rfoot -19.7367 -13.1493
rtoes 5.63195
lfemur -6.98575 5.73731 -22.4906
ltibia 31.0871
lfoot -12.0376 23.3351
ltoes -1.81613
4314
root 14.3679 17.7735 -10.6445 897.561 -189.273 -1617.55
lowerback 7.76783 1.54013 -1.92404
upperback 0.32313 1.88549 0.0959036
thorax -4.08655 0.972322 0.968754
lowerneck -17.8657 -6.02053 -12.6879
upperneck 35.2774 -7.26097 7.35597
head 16.4863 -3.6938 4.04803
rclavicle -1.05604e-014 -7.55382e-015
rhumerus -32.7917 -6.35848 -84.2462
rradius 34.8821
rwrist 1.54782
rhand -17.291 5.61699
rfingers 7.12502
rthumb 8.95459 -24.173
lclavicle -1.05604e-014 -7.55382e-015
lhumerus -31.3057 12.4413 68.6142
lradius 27.3413
lwrist -7.75227
lhand -18.8385 27.0411
lfingers 7.12502
lthumb 7.46101 56.8896
rfemur -6.55766 -6.87606 21.0767
rtibia 33.7363
rfoot -19.6869 -12.4105
rtoes 6.1568
lfemur -7.06528 5.50306 -22.2463
ltibia 31.6622
lfoot -12.1742 23.578
ltoes -1.14382
4315
root 14.3829 17.7708 -10.6495 897.404 -188.239 -1617.74
lowerback 7.85157 1.58603 -1.73067
upperback 0.337495 1.96425 0.148721
thorax -4.11641 1.00819 0.903947
lowerneck -17.7579 -5.96736 -12.5561
upperneck 35.0163 -7.24858 7.38118
head 16.3166 -3.66825 4.02843
rclavicle -1.06598e-014 -6.16232e-015
rhumerus -33.0072 -6.45552 -84.0513
rradius 35.1432
rwrist 2.33956
rhand -16.2261 4.06353
rfingers 7.12502
rthumb 9.98204 -25.6798
lclavicle -1.06598e-014 -6.16232e-015
lhumerus -31.6119 11.3025 69.3679
lradius 28.5543
lwrist -6.38681
lhand -18.7183 27.8012
lfingers 7.12502
lthumb 7.57705 57.6455
rfemur -6.41459 -6.47347 21.2065
rtibia 33.4826
rfoot -19.5161 -11.8753
rtoes 6.11132
lfemur -7.12371 5.3688 -21.9256
ltibia 32.2913
lfoot -12.1066 23.5128
ltoes -1.03844
4316
root 14.401 17.7688 -10.6485 897.219 -187.186 -1617.88
lowerback 7.84921 1.6396 -1.62315
upperback 0.464199 2.05006 0.247692
thorax -3.98588 1.04804 0.938516
lowerneck -17.8493 -5.99421 -12.5652
upperneck 34.8369 -7.28787 7.41558
head 16.2554 -3.67944 4.02792
rclavicle 2.66371e-014 -4.37326e-015
rhumerus -32.9142 -6.18186 -84.0539
rradius 34.9243
rwrist 1.23738
rhand -16.8632 4.30353
rfingers 7.12502
rthumb 9.3673 -25.4683
lclavicle 2.66371e-014 -4.37326e-015
lhumerus -31.5119 11.5314 69.8414
lradius 29.0836
lwrist -5.91309
lhand -18.7828 27.7126
lfingers 7.12502
lthumb 7.51477 57.5591
rfemur -6.19595 -5.97872 21.2775
rtibia 33.2145
rfoot -19.3171 -11.3972
rtoes 5.82492
lfemur -7.19793 5.19889 -21.642
ltibia 33.0992
lfoot -11.6654 23.4821
ltoes -1.77225
